# xmcd
#
# Track frame offsets: 
#        180
#        17411
#        31488
#        51454
#        86660
#        113910
#        133222
#        160028
#        177934
#        212811
#        251266
#        274773
#        288584
#        304971
#
# Disc length: 4342 seconds
#
# Revision: 0
# Processed by: cddbd v1.4PL0 Copyright (c) Steve Scherf et al.
# Submitted via: ExactAudioCopy v0.90b4
#
DISCID=c910f40e
DTITLE=Gary Moore - Ballads and Blues 2
DYEAR=1996
DGENRE=Ballad
TTITLE0=Don't believe a word
TTITLE1=I loved another women
TTITLE2=Oh,pretty women
TTITLE3=I can't wait until tomorrow
TTITLE4=I look at you
TTITLE5=Merry go round
TTITLE6=The loner
TTITLE7=Spanish guitar
TTITLE8=As the years go passing by
TTITLE9=Driftin'
TTITLE10=Cold hearted
TTITLE11=The supernatural
TTITLE12=Don't let me be misunderstood
TTITLE13=King of the blues
EXTD=
EXTT0=
EXTT1=
EXTT2=
EXTT3=
EXTT4=
EXTT5=
EXTT6=
EXTT7=
EXTT8=
EXTT9=
EXTT10=
EXTT11=
EXTT12=
EXTT13=
PLAYORDER=
